<mxfile host="Electron" modified="2024-08-26T16:38:25.855Z" agent="Mozilla/5.0 (Windows NT 10.0; Win64; x64) AppleWebKit/537.36 (KHTML, like Gecko) draw.io/22.1.16 Chrome/120.0.6099.109 Electron/28.1.0 Safari/537.36" etag="T5p7RscDGXJeOl4MuGdd" version="22.1.16" type="device">
  <diagram name="Page-1" id="oKdCf5ge1eQtf_koEXT0">
    <mxGraphModel dx="448" dy="299" grid="1" gridSize="10" guides="1" tooltips="1" connect="1" arrows="1" fold="1" page="1" pageScale="1" pageWidth="400" pageHeight="180" math="0" shadow="0">
      <root>
        <mxCell id="0" />
        <mxCell id="1" parent="0" />
        <mxCell id="70j0kBulyK4YT-5wAR5I-61" value="" style="ellipse;whiteSpace=wrap;html=1;aspect=fixed;fillColor=#fff2cc;strokeColor=#d6b656;opacity=40;" vertex="1" parent="1">
          <mxGeometry x="26" y="20" width="80" height="80" as="geometry" />
        </mxCell>
        <mxCell id="70j0kBulyK4YT-5wAR5I-2" value="" style="rounded=0;whiteSpace=wrap;html=1;fillColor=none;movable=0;resizable=1;rotatable=1;deletable=1;editable=1;locked=0;connectable=1;" vertex="1" parent="1">
          <mxGeometry x="10" y="10" width="380" height="160" as="geometry" />
        </mxCell>
        <mxCell id="70j0kBulyK4YT-5wAR5I-3" value="" style="endArrow=none;dashed=1;html=1;rounded=0;strokeWidth=0.5;strokeColor=#CCCCCC;" edge="1" parent="1" target="70j0kBulyK4YT-5wAR5I-2">
          <mxGeometry width="50" height="50" relative="1" as="geometry">
            <mxPoint x="30" y="170" as="sourcePoint" />
            <mxPoint x="80" y="120" as="targetPoint" />
            <Array as="points">
              <mxPoint x="30" y="10" />
            </Array>
          </mxGeometry>
        </mxCell>
        <mxCell id="70j0kBulyK4YT-5wAR5I-5" value="" style="endArrow=none;dashed=1;html=1;rounded=0;strokeWidth=0.5;strokeColor=#CCCCCC;" edge="1" parent="1">
          <mxGeometry width="50" height="50" relative="1" as="geometry">
            <mxPoint x="70" y="170" as="sourcePoint" />
            <mxPoint x="70" y="10" as="targetPoint" />
            <Array as="points">
              <mxPoint x="70" y="10" />
            </Array>
          </mxGeometry>
        </mxCell>
        <mxCell id="70j0kBulyK4YT-5wAR5I-6" value="" style="endArrow=none;dashed=1;html=1;rounded=0;strokeWidth=0.5;strokeColor=#CCCCCC;" edge="1" parent="1">
          <mxGeometry width="50" height="50" relative="1" as="geometry">
            <mxPoint x="90" y="170" as="sourcePoint" />
            <mxPoint x="90" y="10" as="targetPoint" />
            <Array as="points">
              <mxPoint x="90" y="10" />
            </Array>
          </mxGeometry>
        </mxCell>
        <mxCell id="70j0kBulyK4YT-5wAR5I-7" value="" style="endArrow=none;dashed=1;html=1;rounded=0;strokeWidth=0.5;strokeColor=#CCCCCC;" edge="1" parent="1" source="70j0kBulyK4YT-5wAR5I-56">
          <mxGeometry width="50" height="50" relative="1" as="geometry">
            <mxPoint x="110" y="170" as="sourcePoint" />
            <mxPoint x="110" y="10" as="targetPoint" />
            <Array as="points">
              <mxPoint x="110" y="10" />
            </Array>
          </mxGeometry>
        </mxCell>
        <mxCell id="70j0kBulyK4YT-5wAR5I-8" value="" style="endArrow=none;dashed=1;html=1;rounded=0;strokeWidth=0.5;strokeColor=#CCCCCC;" edge="1" parent="1">
          <mxGeometry width="50" height="50" relative="1" as="geometry">
            <mxPoint x="130" y="170" as="sourcePoint" />
            <mxPoint x="130" y="10" as="targetPoint" />
            <Array as="points">
              <mxPoint x="130" y="10" />
            </Array>
          </mxGeometry>
        </mxCell>
        <mxCell id="70j0kBulyK4YT-5wAR5I-9" value="" style="endArrow=none;dashed=1;html=1;rounded=0;strokeWidth=0.5;strokeColor=#CCCCCC;" edge="1" parent="1">
          <mxGeometry width="50" height="50" relative="1" as="geometry">
            <mxPoint x="150" y="170" as="sourcePoint" />
            <mxPoint x="150" y="10" as="targetPoint" />
            <Array as="points">
              <mxPoint x="150" y="10" />
            </Array>
          </mxGeometry>
        </mxCell>
        <mxCell id="70j0kBulyK4YT-5wAR5I-10" value="" style="endArrow=none;dashed=1;html=1;rounded=0;strokeWidth=0.5;strokeColor=#CCCCCC;" edge="1" parent="1">
          <mxGeometry width="50" height="50" relative="1" as="geometry">
            <mxPoint x="170" y="170" as="sourcePoint" />
            <mxPoint x="170" y="10" as="targetPoint" />
            <Array as="points">
              <mxPoint x="170" y="10" />
            </Array>
          </mxGeometry>
        </mxCell>
        <mxCell id="70j0kBulyK4YT-5wAR5I-11" value="" style="endArrow=none;dashed=1;html=1;rounded=0;strokeWidth=0.5;strokeColor=#CCCCCC;" edge="1" parent="1">
          <mxGeometry width="50" height="50" relative="1" as="geometry">
            <mxPoint x="190" y="170" as="sourcePoint" />
            <mxPoint x="190" y="10" as="targetPoint" />
            <Array as="points">
              <mxPoint x="190" y="10" />
            </Array>
          </mxGeometry>
        </mxCell>
        <mxCell id="70j0kBulyK4YT-5wAR5I-12" value="" style="endArrow=none;dashed=1;html=1;rounded=0;strokeWidth=0.5;strokeColor=#CCCCCC;" edge="1" parent="1">
          <mxGeometry width="50" height="50" relative="1" as="geometry">
            <mxPoint x="210" y="170" as="sourcePoint" />
            <mxPoint x="210" y="10" as="targetPoint" />
            <Array as="points">
              <mxPoint x="210" y="10" />
            </Array>
          </mxGeometry>
        </mxCell>
        <mxCell id="70j0kBulyK4YT-5wAR5I-13" value="" style="endArrow=none;dashed=1;html=1;rounded=0;strokeWidth=0.5;strokeColor=#CCCCCC;" edge="1" parent="1">
          <mxGeometry width="50" height="50" relative="1" as="geometry">
            <mxPoint x="230" y="170" as="sourcePoint" />
            <mxPoint x="230" y="10" as="targetPoint" />
            <Array as="points">
              <mxPoint x="230" y="10" />
            </Array>
          </mxGeometry>
        </mxCell>
        <mxCell id="70j0kBulyK4YT-5wAR5I-14" value="" style="endArrow=none;dashed=1;html=1;rounded=0;strokeWidth=0.5;strokeColor=#CCCCCC;" edge="1" parent="1">
          <mxGeometry width="50" height="50" relative="1" as="geometry">
            <mxPoint x="250" y="170" as="sourcePoint" />
            <mxPoint x="250" y="10" as="targetPoint" />
            <Array as="points">
              <mxPoint x="250" y="10" />
            </Array>
          </mxGeometry>
        </mxCell>
        <mxCell id="70j0kBulyK4YT-5wAR5I-15" value="" style="endArrow=none;dashed=1;html=1;rounded=0;strokeWidth=0.5;strokeColor=#CCCCCC;" edge="1" parent="1">
          <mxGeometry width="50" height="50" relative="1" as="geometry">
            <mxPoint x="270" y="170" as="sourcePoint" />
            <mxPoint x="270" y="10" as="targetPoint" />
            <Array as="points">
              <mxPoint x="270" y="10" />
            </Array>
          </mxGeometry>
        </mxCell>
        <mxCell id="70j0kBulyK4YT-5wAR5I-16" value="" style="endArrow=none;dashed=1;html=1;rounded=0;strokeWidth=0.5;strokeColor=#CCCCCC;" edge="1" parent="1">
          <mxGeometry width="50" height="50" relative="1" as="geometry">
            <mxPoint x="290" y="170" as="sourcePoint" />
            <mxPoint x="290" y="10" as="targetPoint" />
            <Array as="points">
              <mxPoint x="290" y="10" />
            </Array>
          </mxGeometry>
        </mxCell>
        <mxCell id="70j0kBulyK4YT-5wAR5I-17" value="" style="endArrow=none;dashed=1;html=1;rounded=0;strokeWidth=0.5;strokeColor=#CCCCCC;" edge="1" parent="1">
          <mxGeometry width="50" height="50" relative="1" as="geometry">
            <mxPoint x="310" y="170" as="sourcePoint" />
            <mxPoint x="310" y="10" as="targetPoint" />
            <Array as="points">
              <mxPoint x="310" y="10" />
            </Array>
          </mxGeometry>
        </mxCell>
        <mxCell id="70j0kBulyK4YT-5wAR5I-18" value="" style="endArrow=none;dashed=1;html=1;rounded=0;strokeWidth=0.5;strokeColor=#CCCCCC;" edge="1" parent="1">
          <mxGeometry width="50" height="50" relative="1" as="geometry">
            <mxPoint x="330" y="170" as="sourcePoint" />
            <mxPoint x="330" y="10" as="targetPoint" />
            <Array as="points">
              <mxPoint x="330" y="10" />
            </Array>
          </mxGeometry>
        </mxCell>
        <mxCell id="70j0kBulyK4YT-5wAR5I-19" value="" style="endArrow=none;dashed=1;html=1;rounded=0;strokeWidth=0.5;strokeColor=#CCCCCC;" edge="1" parent="1">
          <mxGeometry width="50" height="50" relative="1" as="geometry">
            <mxPoint x="349.43" y="170" as="sourcePoint" />
            <mxPoint x="349.43" y="10" as="targetPoint" />
            <Array as="points">
              <mxPoint x="349.43" y="10" />
            </Array>
          </mxGeometry>
        </mxCell>
        <mxCell id="70j0kBulyK4YT-5wAR5I-20" value="" style="endArrow=none;dashed=1;html=1;rounded=0;strokeWidth=0.5;strokeColor=#CCCCCC;" edge="1" parent="1">
          <mxGeometry width="50" height="50" relative="1" as="geometry">
            <mxPoint x="369.43" y="170" as="sourcePoint" />
            <mxPoint x="369.43" y="10" as="targetPoint" />
            <Array as="points">
              <mxPoint x="369.43" y="10" />
            </Array>
          </mxGeometry>
        </mxCell>
        <mxCell id="70j0kBulyK4YT-5wAR5I-24" value="" style="endArrow=none;dashed=1;html=1;rounded=0;strokeWidth=0.5;strokeColor=#CCCCCC;" edge="1" parent="1">
          <mxGeometry width="50" height="50" relative="1" as="geometry">
            <mxPoint x="10" y="30" as="sourcePoint" />
            <mxPoint x="390" y="30" as="targetPoint" />
          </mxGeometry>
        </mxCell>
        <mxCell id="70j0kBulyK4YT-5wAR5I-25" value="" style="endArrow=none;dashed=1;html=1;rounded=0;strokeWidth=0.5;strokeColor=#CCCCCC;" edge="1" parent="1">
          <mxGeometry width="50" height="50" relative="1" as="geometry">
            <mxPoint x="10" y="50" as="sourcePoint" />
            <mxPoint x="390" y="50" as="targetPoint" />
          </mxGeometry>
        </mxCell>
        <mxCell id="70j0kBulyK4YT-5wAR5I-26" value="" style="endArrow=none;dashed=1;html=1;rounded=0;strokeWidth=0.5;strokeColor=#CCCCCC;" edge="1" parent="1">
          <mxGeometry width="50" height="50" relative="1" as="geometry">
            <mxPoint x="10" y="70" as="sourcePoint" />
            <mxPoint x="390" y="70" as="targetPoint" />
          </mxGeometry>
        </mxCell>
        <mxCell id="70j0kBulyK4YT-5wAR5I-27" value="" style="endArrow=none;dashed=1;html=1;rounded=0;strokeWidth=0.5;strokeColor=#CCCCCC;" edge="1" parent="1">
          <mxGeometry width="50" height="50" relative="1" as="geometry">
            <mxPoint x="10" y="90" as="sourcePoint" />
            <mxPoint x="390" y="90" as="targetPoint" />
          </mxGeometry>
        </mxCell>
        <mxCell id="70j0kBulyK4YT-5wAR5I-28" value="" style="endArrow=none;dashed=1;html=1;rounded=0;strokeWidth=0.5;strokeColor=#CCCCCC;" edge="1" parent="1">
          <mxGeometry width="50" height="50" relative="1" as="geometry">
            <mxPoint x="10" y="110" as="sourcePoint" />
            <mxPoint x="390" y="110" as="targetPoint" />
          </mxGeometry>
        </mxCell>
        <mxCell id="70j0kBulyK4YT-5wAR5I-29" value="" style="endArrow=none;dashed=1;html=1;rounded=0;strokeWidth=0.5;strokeColor=#CCCCCC;" edge="1" parent="1">
          <mxGeometry width="50" height="50" relative="1" as="geometry">
            <mxPoint x="10" y="130" as="sourcePoint" />
            <mxPoint x="390" y="130" as="targetPoint" />
          </mxGeometry>
        </mxCell>
        <mxCell id="70j0kBulyK4YT-5wAR5I-30" value="" style="endArrow=none;dashed=1;html=1;rounded=0;strokeWidth=0.5;strokeColor=#CCCCCC;" edge="1" parent="1">
          <mxGeometry width="50" height="50" relative="1" as="geometry">
            <mxPoint x="10" y="150" as="sourcePoint" />
            <mxPoint x="390" y="150" as="targetPoint" />
          </mxGeometry>
        </mxCell>
        <mxCell id="70j0kBulyK4YT-5wAR5I-41" value="" style="endArrow=none;html=1;rounded=0;strokeWidth=0.5;strokeColor=#EA6B66;" edge="1" parent="1">
          <mxGeometry width="50" height="50" relative="1" as="geometry">
            <mxPoint x="222" y="170" as="sourcePoint" />
            <mxPoint x="222" y="10" as="targetPoint" />
          </mxGeometry>
        </mxCell>
        <mxCell id="70j0kBulyK4YT-5wAR5I-42" value="" style="endArrow=none;html=1;rounded=0;strokeWidth=0.5;entryX=1;entryY=0.826;entryDx=0;entryDy=0;entryPerimeter=0;strokeColor=#97D077;" edge="1" parent="1" target="70j0kBulyK4YT-5wAR5I-2">
          <mxGeometry width="50" height="50" relative="1" as="geometry">
            <mxPoint x="222" y="143" as="sourcePoint" />
            <mxPoint x="402" y="142" as="targetPoint" />
          </mxGeometry>
        </mxCell>
        <mxCell id="70j0kBulyK4YT-5wAR5I-43" value="" style="endArrow=none;html=1;rounded=0;strokeWidth=0.5;strokeColor=#EA6B66;" edge="1" parent="1">
          <mxGeometry width="50" height="50" relative="1" as="geometry">
            <mxPoint x="302" y="143" as="sourcePoint" />
            <mxPoint x="302" y="10" as="targetPoint" />
          </mxGeometry>
        </mxCell>
        <mxCell id="70j0kBulyK4YT-5wAR5I-44" value="" style="endArrow=none;html=1;rounded=0;strokeWidth=0.5;strokeColor=#97D077;" edge="1" parent="1">
          <mxGeometry width="50" height="50" relative="1" as="geometry">
            <mxPoint x="10" y="88" as="sourcePoint" />
            <mxPoint x="222" y="87" as="targetPoint" />
          </mxGeometry>
        </mxCell>
        <mxCell id="70j0kBulyK4YT-5wAR5I-45" value="" style="endArrow=none;html=1;rounded=0;strokeWidth=0.5;strokeColor=#EA6B66;" edge="1" parent="1">
          <mxGeometry width="50" height="50" relative="1" as="geometry">
            <mxPoint x="82" y="88" as="sourcePoint" />
            <mxPoint x="82" y="10" as="targetPoint" />
          </mxGeometry>
        </mxCell>
        <mxCell id="70j0kBulyK4YT-5wAR5I-46" value="" style="endArrow=none;html=1;rounded=0;strokeWidth=0.5;strokeColor=#97D077;" edge="1" parent="1">
          <mxGeometry width="50" height="50" relative="1" as="geometry">
            <mxPoint x="82" y="37" as="sourcePoint" />
            <mxPoint x="222" y="36" as="targetPoint" />
          </mxGeometry>
        </mxCell>
        <mxCell id="70j0kBulyK4YT-5wAR5I-47" value="" style="endArrow=none;html=1;rounded=0;strokeWidth=0.5;strokeColor=#97D077;" edge="1" parent="1">
          <mxGeometry width="50" height="50" relative="1" as="geometry">
            <mxPoint x="10" y="22" as="sourcePoint" />
            <mxPoint x="82" y="22" as="targetPoint" />
          </mxGeometry>
        </mxCell>
        <mxCell id="70j0kBulyK4YT-5wAR5I-48" value="" style="endArrow=none;html=1;rounded=0;strokeWidth=0.5;strokeColor=#EA6B66;" edge="1" parent="1">
          <mxGeometry width="50" height="50" relative="1" as="geometry">
            <mxPoint x="57.5" y="88" as="sourcePoint" />
            <mxPoint x="57.5" y="22" as="targetPoint" />
          </mxGeometry>
        </mxCell>
        <mxCell id="70j0kBulyK4YT-5wAR5I-33" value="" style="ellipse;whiteSpace=wrap;html=1;aspect=fixed;strokeColor=none;fillColor=#000000;" vertex="1" parent="1">
          <mxGeometry x="60" y="20.5" width="3" height="3" as="geometry" />
        </mxCell>
        <mxCell id="70j0kBulyK4YT-5wAR5I-34" value="" style="ellipse;whiteSpace=wrap;html=1;aspect=fixed;strokeColor=none;fillColor=#000000;" vertex="1" parent="1">
          <mxGeometry x="56" y="40" width="3" height="3" as="geometry" />
        </mxCell>
        <mxCell id="70j0kBulyK4YT-5wAR5I-35" value="" style="ellipse;whiteSpace=wrap;html=1;aspect=fixed;strokeColor=none;fillColor=#000000;" vertex="1" parent="1">
          <mxGeometry x="80.5" y="60" width="3" height="3" as="geometry" />
        </mxCell>
        <mxCell id="70j0kBulyK4YT-5wAR5I-36" value="" style="ellipse;whiteSpace=wrap;html=1;aspect=fixed;strokeColor=none;fillColor=#000000;" vertex="1" parent="1">
          <mxGeometry x="100" y="35.5" width="3" height="3" as="geometry" />
        </mxCell>
        <mxCell id="70j0kBulyK4YT-5wAR5I-37" value="" style="ellipse;whiteSpace=wrap;html=1;aspect=fixed;strokeColor=none;fillColor=#000000;" vertex="1" parent="1">
          <mxGeometry x="152" y="86" width="3" height="3" as="geometry" />
        </mxCell>
        <mxCell id="70j0kBulyK4YT-5wAR5I-38" value="" style="ellipse;whiteSpace=wrap;html=1;aspect=fixed;strokeColor=none;fillColor=#000000;" vertex="1" parent="1">
          <mxGeometry x="220.5" y="100" width="3" height="3" as="geometry" />
        </mxCell>
        <mxCell id="70j0kBulyK4YT-5wAR5I-39" value="" style="ellipse;whiteSpace=wrap;html=1;aspect=fixed;strokeColor=none;fillColor=#000000;" vertex="1" parent="1">
          <mxGeometry x="300.5" y="40" width="3" height="3" as="geometry" />
        </mxCell>
        <mxCell id="70j0kBulyK4YT-5wAR5I-40" value="" style="ellipse;whiteSpace=wrap;html=1;aspect=fixed;strokeColor=none;fillColor=#000000;" vertex="1" parent="1">
          <mxGeometry x="261" y="141.5" width="3" height="3" as="geometry" />
        </mxCell>
        <mxCell id="70j0kBulyK4YT-5wAR5I-49" value="1" style="text;strokeColor=none;align=center;fillColor=none;html=1;verticalAlign=middle;whiteSpace=wrap;rounded=0;fontSize=10;" vertex="1" parent="1">
          <mxGeometry x="222" y="99" width="20" height="20" as="geometry" />
        </mxCell>
        <mxCell id="70j0kBulyK4YT-5wAR5I-50" value="2" style="text;strokeColor=none;align=center;fillColor=none;html=1;verticalAlign=middle;whiteSpace=wrap;rounded=0;fontSize=10;" vertex="1" parent="1">
          <mxGeometry x="155" y="70" width="20" height="20" as="geometry" />
        </mxCell>
        <mxCell id="70j0kBulyK4YT-5wAR5I-51" value="3" style="text;strokeColor=none;align=center;fillColor=none;html=1;verticalAlign=middle;whiteSpace=wrap;rounded=0;fontSize=10;" vertex="1" parent="1">
          <mxGeometry x="264" y="123.5" width="20" height="20" as="geometry" />
        </mxCell>
        <mxCell id="70j0kBulyK4YT-5wAR5I-52" value="4" style="text;strokeColor=none;align=center;fillColor=none;html=1;verticalAlign=middle;whiteSpace=wrap;rounded=0;fontSize=10;" vertex="1" parent="1">
          <mxGeometry x="303" y="37" width="20" height="20" as="geometry" />
        </mxCell>
        <mxCell id="70j0kBulyK4YT-5wAR5I-53" value="5" style="text;strokeColor=none;align=center;fillColor=none;html=1;verticalAlign=middle;whiteSpace=wrap;rounded=0;fontSize=10;" vertex="1" parent="1">
          <mxGeometry x="83" y="54" width="20" height="20" as="geometry" />
        </mxCell>
        <mxCell id="70j0kBulyK4YT-5wAR5I-54" value="6" style="text;strokeColor=none;align=center;fillColor=none;html=1;verticalAlign=middle;whiteSpace=wrap;rounded=0;fontSize=10;" vertex="1" parent="1">
          <mxGeometry x="56" y="19" width="20" height="20" as="geometry" />
        </mxCell>
        <mxCell id="70j0kBulyK4YT-5wAR5I-58" value="" style="endArrow=none;dashed=1;html=1;rounded=0;strokeWidth=0.5;strokeColor=#CCCCCC;" edge="1" parent="1">
          <mxGeometry width="50" height="50" relative="1" as="geometry">
            <mxPoint x="50" y="170" as="sourcePoint" />
            <mxPoint x="50" y="10" as="targetPoint" />
            <Array as="points" />
          </mxGeometry>
        </mxCell>
        <mxCell id="70j0kBulyK4YT-5wAR5I-55" value="7" style="text;strokeColor=none;align=center;fillColor=none;html=1;verticalAlign=middle;whiteSpace=wrap;rounded=0;fontSize=10;" vertex="1" parent="1">
          <mxGeometry x="38" y="41" width="20" height="20" as="geometry" />
        </mxCell>
        <mxCell id="70j0kBulyK4YT-5wAR5I-59" value="" style="endArrow=none;dashed=1;html=1;rounded=0;strokeWidth=0.5;strokeColor=#CCCCCC;" edge="1" parent="1" target="70j0kBulyK4YT-5wAR5I-56">
          <mxGeometry width="50" height="50" relative="1" as="geometry">
            <mxPoint x="110" y="170" as="sourcePoint" />
            <mxPoint x="110" y="10" as="targetPoint" />
            <Array as="points" />
          </mxGeometry>
        </mxCell>
        <mxCell id="70j0kBulyK4YT-5wAR5I-56" value="8" style="text;strokeColor=none;align=center;fillColor=none;html=1;verticalAlign=middle;whiteSpace=wrap;rounded=0;fontSize=10;" vertex="1" parent="1">
          <mxGeometry x="100" y="34" width="20" height="20" as="geometry" />
        </mxCell>
        <mxCell id="70j0kBulyK4YT-5wAR5I-65" value="" style="ellipse;whiteSpace=wrap;html=1;aspect=fixed;strokeColor=none;fillColor=#000000;" vertex="1" parent="1">
          <mxGeometry x="66.5" y="58.5" width="3" height="3" as="geometry" />
        </mxCell>
      </root>
    </mxGraphModel>
  </diagram>
</mxfile>
